<svg id="PP-LOGO-BL" xmlns="http://www.w3.org/2000/svg" width="251.47" height="36.199" viewBox="0 0 251.47 36.199">
  <g id="PP-TEXT-BL">
    <path id="Path_2" data-name="Path 2" d="M353.654,763.234V735.8h3.194v2.82a9.017,9.017,0,0,1,7.185-3.239,9.158,9.158,0,0,1,6.957,2.972,10.257,10.257,0,0,1,2.813,7.354,10.412,10.412,0,0,1-2.813,7.392,9.26,9.26,0,0,1-6.957,2.934,9.018,9.018,0,0,1-7.185-3.239v10.441Zm5.208-22.6a7.026,7.026,0,0,0-1.939,5.068,7.18,7.18,0,0,0,1.939,5.106,6.567,6.567,0,0,0,4.828,2.02,6.446,6.446,0,0,0,4.828-2.02,7.051,7.051,0,0,0,1.977-5.106,6.9,6.9,0,0,0-1.977-5.068,6.344,6.344,0,0,0-4.828-2.057A6.46,6.46,0,0,0,358.862,740.638Z" transform="translate(-353.654 -727.988)"/>
    <path id="Path_3" data-name="Path 3" d="M432.476,738.619V735.8h3.193v19.814h-3.193v-2.82a9.1,9.1,0,0,1-7.224,3.239A9.26,9.26,0,0,1,418.3,753.1a10.382,10.382,0,0,1-2.775-7.392,10.228,10.228,0,0,1,2.775-7.354,9.653,9.653,0,0,1,14.181.267Zm-11.71,2.02a7.028,7.028,0,0,0-1.939,5.068,7.182,7.182,0,0,0,1.939,5.106,6.567,6.567,0,0,0,4.828,2.02,6.447,6.447,0,0,0,4.828-2.02,7.052,7.052,0,0,0,1.977-5.106,6.9,6.9,0,0,0-1.977-5.068,6.344,6.344,0,0,0-4.828-2.057A6.46,6.46,0,0,0,420.766,740.638Z" transform="translate(-394.28 -727.988)"/>
    <path id="Path_4" data-name="Path 4" d="M482.365,763.234V735.8h3.194v2.82a9.018,9.018,0,0,1,7.185-3.239,9.158,9.158,0,0,1,6.957,2.972,10.256,10.256,0,0,1,2.813,7.354A10.412,10.412,0,0,1,499.7,753.1a9.26,9.26,0,0,1-6.957,2.934,9.018,9.018,0,0,1-7.185-3.239v10.441Zm5.208-22.6a7.026,7.026,0,0,0-1.939,5.068,7.18,7.18,0,0,0,1.939,5.106,6.567,6.567,0,0,0,4.828,2.02,6.446,6.446,0,0,0,4.828-2.02,7.051,7.051,0,0,0,1.977-5.106,6.9,6.9,0,0,0-1.977-5.068,6.343,6.343,0,0,0-4.828-2.057A6.46,6.46,0,0,0,487.573,740.638Z" transform="translate(-438.176 -727.988)"/>
    <path id="Path_5" data-name="Path 5" d="M549.385,746.811a6.968,6.968,0,0,0,2.357,4.458,7.076,7.076,0,0,0,4.866,1.753,6.853,6.853,0,0,0,5.855-2.858l3.117.991a10.309,10.309,0,0,1-8.972,4.877,10.432,10.432,0,0,1-7.528-2.934A10.65,10.65,0,0,1,549,738.352a10.357,10.357,0,0,1,14.523,0,10.036,10.036,0,0,1,2.927,7.354c0,.229-.038.61-.076,1.105Zm13.763-2.591a7,7,0,0,0-2.395-4.23,6.783,6.783,0,0,0-4.562-1.638,6.493,6.493,0,0,0-4.448,1.638,7.1,7.1,0,0,0-2.319,4.23Z" transform="translate(-480.015 -727.988)"/>
    <path id="Path_6" data-name="Path 6" d="M614.829,756.3h-3.194V736.488h3.194v3.353c1.483-2.515,3.837-3.41,7.03-3.41h.532l0,2.964s-.867-.01-1.4-.01a6.176,6.176,0,0,0-4.372,1.638,5.349,5.349,0,0,0-1.787,4.077Z" transform="translate(-523.066 -728.677)"/>
    <path id="Path_7" data-name="Path 7" d="M930.132,756.3h-3.194V736.488h3.194v3.353c1.482-2.515,3.837-3.41,7.03-3.41h.532l0,2.964s-.867-.01-1.4-.01a6.177,6.177,0,0,0-4.372,1.638,5.35,5.35,0,0,0-1.787,4.077Z" transform="translate(-730.119 -728.677)"/>
    <path id="Path_8" data-name="Path 8" d="M650.284,763.234V735.8h3.193v2.82a9.017,9.017,0,0,1,7.185-3.239,9.159,9.159,0,0,1,6.957,2.972,10.256,10.256,0,0,1,2.813,7.354,10.412,10.412,0,0,1-2.813,7.392,9.261,9.261,0,0,1-6.957,2.934,9.018,9.018,0,0,1-7.185-3.239v10.441Zm5.208-22.6a7.026,7.026,0,0,0-1.939,5.068,7.181,7.181,0,0,0,1.939,5.106,6.567,6.567,0,0,0,4.828,2.02,6.446,6.446,0,0,0,4.828-2.02,7.051,7.051,0,0,0,1.977-5.106,6.9,6.9,0,0,0-1.977-5.068,6.344,6.344,0,0,0-4.828-2.057A6.46,6.46,0,0,0,655.492,740.638Z" transform="translate(-548.446 -727.988)"/>
    <path id="Path_9" data-name="Path 9" d="M716.985,741.523V713.9h3.194v27.626Z" transform="translate(-592.247 -713.897)"/>
    <path id="Path_10" data-name="Path 10" d="M752.1,738.619V735.8h3.194v19.814H752.1v-2.82a9.094,9.094,0,0,1-7.223,3.239,9.26,9.26,0,0,1-6.957-2.934,10.381,10.381,0,0,1-2.775-7.392,10.226,10.226,0,0,1,2.775-7.354,9.652,9.652,0,0,1,14.18.267Zm-11.71,2.02a7.026,7.026,0,0,0-1.939,5.068,7.181,7.181,0,0,0,1.939,5.106,6.567,6.567,0,0,0,4.828,2.02,6.447,6.447,0,0,0,4.828-2.02,7.051,7.051,0,0,0,1.977-5.106,6.9,6.9,0,0,0-1.977-5.068,6.344,6.344,0,0,0-4.828-2.057A6.46,6.46,0,0,0,740.39,740.638Z" transform="translate(-604.172 -727.988)"/>
    <path id="Path_11" data-name="Path 11" d="M809.926,755.841l-7.87-19.243h3.308l6.2,15.394,6.387-15.394h3.308L811.523,759.8c-1.482,3.62-3.687,5.182-7.223,5.182h-2.286V761.9H804.3a4.564,4.564,0,0,0,4.448-3.163Z" transform="translate(-648.084 -728.787)"/>
    <path id="Path_12" data-name="Path 12" d="M861.81,746.811a6.967,6.967,0,0,0,2.357,4.458,7.076,7.076,0,0,0,4.866,1.753,6.853,6.853,0,0,0,5.855-2.858l3.117.991a10.308,10.308,0,0,1-8.972,4.877,10.43,10.43,0,0,1-7.528-2.934,10.65,10.65,0,0,1-.076-14.746,10.357,10.357,0,0,1,14.523,0,10.037,10.037,0,0,1,2.927,7.354c0,.229-.038.61-.076,1.105Zm13.762-2.591a7,7,0,0,0-2.395-4.23,6.784,6.784,0,0,0-4.562-1.638,6.493,6.493,0,0,0-4.448,1.638,7.1,7.1,0,0,0-2.32,4.23Z" transform="translate(-685.179 -727.988)"/>
  </g>
  <g id="PP-DISK" transform="translate(213.029 1.253)">
    <path id="Subtraction_1" data-name="Subtraction 1" d="M16.294,32.662A16.309,16.309,0,0,1,0,16.331,16.28,16.28,0,1,1,22.636,31.379,16.162,16.162,0,0,1,16.294,32.662Zm0-22.342a6,6,0,1,0,4.241,1.76A5.951,5.951,0,0,0,16.294,10.32Z" transform="translate(0)" stroke="rgba(0,0,0,0)" stroke-miterlimit="10" stroke-width="1"/>
  </g>
  <g id="PP-CC" transform="translate(245.146 25.544)">
    <path id="Path_13" data-name="Path 13" d="M1070.868,788.132a3.236,3.236,0,0,1,1.555.409,2.909,2.909,0,0,1,1.182,1.172,3.191,3.191,0,0,1,.006,3.165,2.941,2.941,0,0,1-1.169,1.174,3.17,3.17,0,0,1-3.147,0,2.952,2.952,0,0,1-1.171-1.174,3.178,3.178,0,0,1,.006-3.165,2.922,2.922,0,0,1,1.184-1.172A3.237,3.237,0,0,1,1070.868,788.132Zm0,.525a2.687,2.687,0,0,0-1.3.342,2.455,2.455,0,0,0-.987.979,2.639,2.639,0,0,0-.006,2.638,2.484,2.484,0,0,0,.978.979,2.632,2.632,0,0,0,2.624,0,2.471,2.471,0,0,0,.976-.979,2.65,2.65,0,0,0-.006-2.638,2.434,2.434,0,0,0-.987-.979A2.692,2.692,0,0,0,1070.868,788.657Zm1.014,3.159.516.151a1.447,1.447,0,0,1-.535.838,1.734,1.734,0,0,1-2.19-.166,1.835,1.835,0,0,1-.46-1.327,2.1,2.1,0,0,1,.209-.964,1.409,1.409,0,0,1,.6-.617,1.844,1.844,0,0,1,.886-.208,1.542,1.542,0,0,1,.926.267,1.328,1.328,0,0,1,.5.725l-.5.121a1.017,1.017,0,0,0-.371-.477,1,1,0,0,0-.576-.166,1.024,1.024,0,0,0-.794.344,1.732,1.732,0,0,0-.017,1.959.978.978,0,0,0,.765.33,1.06,1.06,0,0,0,.662-.218A1.032,1.032,0,0,0,1071.882,791.816Z" transform="translate(-1067.704 -788.132)"/>
  </g>
</svg>
