<?xml version="1.0" encoding="UTF-8" standalone="no"?><svg xmlns="http://www.w3.org/2000/svg" xmlns:xlink="http://www.w3.org/1999/xlink" width="21px" height="20px" viewBox="0 0 21 20" version="1.1"><title>grid [#1525]</title><g id="Page-1" stroke="none" stroke-width="1" fill="none" fill-rule="evenodd"><g id="Dribbble-Light-Preview" transform="translate(-259.000000, -200.000000)" fill="#000"><g id="icons" transform="translate(56.000000, 160.000000)"><path d="M219.8 58h2.1v-2h-2.1v2zm2.1-4h-2.1c-1.16 0-2.1.895-2.1 2v2c0 1.104.94 2 2.1 2h2.1c1.16 0 2.1-.896 2.1-2v-2c0-1.105-.94-2-2.1-2zm-9.45 4h2.1v-2h-2.1v2zm2.1-4h-2.1c-1.16 0-2.1.895-2.1 2v2c0 1.104.94 2 2.1 2h2.1c1.16 0 2.1-.896 2.1-2v-2c0-1.105-.94-2-2.1-2zm-9.45 4h2.1v-2h-2.1v2zm2.1-4h-2.1c-1.16 0-2.1.895-2.1 2v2c0 1.104.94 2 2.1 2h2.1c1.16 0 2.1-.896 2.1-2v-2c0-1.105-.94-2-2.1-2zm12.6-3h2.1v-2h-2.1v2zm2.1-4h-2.1c-1.16 0-2.1.895-2.1 2v2c0 1.104.94 2 2.1 2h2.1c1.16 0 2.1-.896 2.1-2v-2c0-1.105-.94-2-2.1-2zm-9.45 4h2.1v-2h-2.1v2zm2.1-4h-2.1c-1.16 0-2.1.895-2.1 2v2c0 1.104.94 2 2.1 2h2.1c1.16 0 2.1-.896 2.1-2v-2c0-1.105-.94-2-2.1-2zm-9.45 4h2.1v-2h-2.1v2zm2.1-4h-2.1c-1.16 0-2.1.895-2.1 2v2c0 1.104.94 2 2.1 2h2.1c1.16 0 2.1-.896 2.1-2v-2c0-1.105-.94-2-2.1-2zm12.6-3h2.1v-2h-2.1v2zm2.1-4h-2.1c-1.16 0-2.1.895-2.1 2v2c0 1.104.94 2 2.1 2h2.1c1.16 0 2.1-.896 2.1-2v-2c0-1.105-.94-2-2.1-2zm-9.45 4h2.1v-2h-2.1v2zm2.1-4h-2.1c-1.16 0-2.1.895-2.1 2v2c0 1.104.94 2 2.1 2h2.1c1.16 0 2.1-.896 2.1-2v-2c0-1.105-.94-2-2.1-2zm-9.45 4h2.1v-2h-2.1v2zm2.1-4h-2.1c-1.16 0-2.1.895-2.1 2v2c0 1.104.94 2 2.1 2h2.1c1.16 0 2.1-.896 2.1-2v-2c0-1.105-.94-2-2.1-2z" id="grid-[#1525]"/></g></g></g><metadata><rdf:RDF xmlns:rdf="http://www.w3.org/1999/02/22-rdf-syntax-ns#" xmlns:rdfs="http://www.w3.org/2000/01/rdf-schema#" xmlns:dc="http://purl.org/dc/elements/1.1/"><rdf:Description about="https://iconscout.com/legal#licenses" dc:title="grid" dc:description="grid" dc:publisher="Iconscout" dc:date="2017-09-15" dc:format="image/svg+xml" dc:language="en"><dc:creator><rdf:Bag><rdf:li>Alexandru Stoica</rdf:li></rdf:Bag></dc:creator></rdf:Description></rdf:RDF></metadata></svg>