<?xml version="1.0" encoding="utf-8"?>
<!-- Generator: Adobe Illustrator 24.1.1, SVG Export Plug-In . SVG Version: 6.00 Build 0)  -->
<svg version="1.1" id="Layer_1" xmlns="http://www.w3.org/2000/svg" xmlns:xlink="http://www.w3.org/1999/xlink" x="0px" y="0px"
	 viewBox="0 0 512 512" style="enable-background:new 0 0 512 512;" xml:space="preserve">
<style type="text/css">
	.st0{fill-rule:evenodd;clip-rule:evenodd;}
</style>
<g>
	<path class="st0" d="M109.7,36.6H36.6v73.1h73.1V36.6z M146.3,475.4v-73.1c0-20.2-16.4-36.6-36.6-36.6H36.6
		C16.4,365.7,0,382.1,0,402.3v73.1C0,495.6,16.4,512,36.6,512h73.1C129.9,512,146.3,495.6,146.3,475.4z M146.3,292.6v-73.1
		c0-20.2-16.4-36.6-36.6-36.6H36.6C16.4,182.9,0,199.2,0,219.4v73.1c0,20.2,16.4,36.6,36.6,36.6h73.1
		C129.9,329.1,146.3,312.8,146.3,292.6z M146.3,109.7V36.6c0-20.2-16.4-36.6-36.6-36.6H36.6C16.4,0,0,16.4,0,36.6v73.1
		c0,20.2,16.4,36.6,36.6,36.6h73.1C129.9,146.3,146.3,129.9,146.3,109.7z M329.1,475.4v-73.1c0-20.2-16.4-36.6-36.6-36.6h-73.1
		c-20.2,0-36.6,16.4-36.6,36.6v73.1c0,20.2,16.4,36.6,36.6,36.6h73.1C312.8,512,329.1,495.6,329.1,475.4z M329.1,292.6v-73.1
		c0-20.2-16.4-36.6-36.6-36.6h-73.1c-20.2,0-36.6,16.4-36.6,36.6v73.1c0,20.2,16.4,36.6,36.6,36.6h73.1
		C312.8,329.1,329.1,312.8,329.1,292.6z M329.1,109.7V36.6c0-20.2-16.4-36.6-36.6-36.6h-73.1c-20.2,0-36.6,16.4-36.6,36.6v73.1
		c0,20.2,16.4,36.6,36.6,36.6h73.1C312.8,146.3,329.1,129.9,329.1,109.7z M292.6,36.6h-73.1v73.1h73.1V36.6z M475.4,36.6h-73.1v73.1
		h73.1V36.6z M109.7,219.4H36.6v73.1h73.1V219.4z M292.6,219.4h-73.1v73.1h73.1V219.4z M475.4,219.4h-73.1v73.1h73.1V219.4z
		 M109.7,402.3H36.6v73.1h73.1V402.3z M292.6,402.3h-73.1v73.1h73.1V402.3z M475.4,402.3h-73.1v73.1h73.1V402.3z M402.3,0
		c-20.2,0-36.6,16.4-36.6,36.6v73.1c0,20.2,16.4,36.6,36.6,36.6h73.1c20.2,0,36.6-16.4,36.6-36.6V36.6C512,16.4,495.6,0,475.4,0
		H402.3z M365.7,219.4c0-20.2,16.4-36.6,36.6-36.6h73.1c20.2,0,36.6,16.4,36.6,36.6v73.1c0,20.2-16.4,36.6-36.6,36.6h-73.1
		c-20.2,0-36.6-16.4-36.6-36.6V219.4z M402.3,365.7c-20.2,0-36.6,16.4-36.6,36.6v73.1c0,20.2,16.4,36.6,36.6,36.6h73.1
		c20.2,0,36.6-16.4,36.6-36.6v-73.1c0-20.2-16.4-36.6-36.6-36.6H402.3z"/>
</g>
</svg>
